<svg xmlns="http://www.w3.org/2000/svg" width="1024" height="1024" viewBox="0 0 1024 1024">
  <defs>
    <linearGradient id="background" x1="180" y1="80" x2="850" y2="940" gradientUnits="userSpaceOnUse">
      <stop stop-color="#806aa8"/>
      <stop offset="1" stop-color="#49355f"/>
    </linearGradient>
    <linearGradient id="leaf" x1="370" y1="240" x2="700" y2="520" gradientUnits="userSpaceOnUse">
      <stop stop-color="#a7d77b"/>
      <stop offset="1" stop-color="#5c9f63"/>
    </linearGradient>
    <filter id="shadow" x="-30%" y="-30%" width="160%" height="170%">
      <feDropShadow dx="0" dy="28" stdDeviation="30" flood-color="#24172f" flood-opacity="0.32"/>
    </filter>
  </defs>
  <rect x="44" y="44" width="936" height="936" rx="224" fill="url(#background)"/>
  <circle cx="512" cy="510" r="350" fill="#fffaf0" filter="url(#shadow)"/>
  <path d="M488 425c-87-8-151-57-177-143 93-10 169 27 203 108-1-90 52-157 145-190 14 96-24 177-116 225v78h112c75 0 119 43 119 119v151c0 76-44 119-119 119H369c-76 0-119-43-119-119V622c0-76 43-119 119-119h119v-78Z" fill="#5b4775"/>
  <path d="M466 405c-56-15-97-48-121-99 59 2 111 30 145 83-4 6-12 12-24 16Zm76-6c14-67 51-116 111-146-2 67-35 119-99 156-6-1-10-4-12-10Z" fill="url(#leaf)"/>
  <rect x="357" y="616" width="310" height="165" rx="66" fill="#fffaf0"/>
  <circle cx="432" cy="695" r="28" fill="#5b4775"/>
  <circle cx="592" cy="695" r="28" fill="#5b4775"/>
  <path d="M467 738c29 26 61 26 90 0" fill="none" stroke="#5b4775" stroke-width="22" stroke-linecap="round"/>
  <circle cx="705" cy="349" r="45" fill="#d8b72f"/>
  <path d="M705 280v138M636 349h138" stroke="#fffaf0" stroke-width="18" stroke-linecap="round"/>
</svg>
